<svg width="187" height="40" viewBox="0 0 187 40" fill="none" xmlns="http://www.w3.org/2000/svg">
<g clip-path="url(#clip0_2633_21750)">
<path d="M54.4802 25.3661C54.4802 25.8951 54.3684 26.3619 54.1446 26.7727C53.9208 27.1835 53.6101 27.5009 53.1998 27.7249C52.7896 27.949 52.3297 28.0611 51.8013 28.0611H49.1846V31.8763H52.3545C53.5479 31.8763 54.617 31.6087 55.5679 31.0734C56.5189 30.5382 57.2648 29.7975 57.8055 28.8577C58.3463 27.9179 58.6198 26.8598 58.6198 25.6773V13.1361H54.4802V25.3661ZM65.625 24.2271H74.2952V20.7231H65.625V16.746H75.209V13.1361H61.5908V31.8701H75.4761V28.2603H65.625V24.2271ZM76.7756 16.8518H82.3194V31.8639H86.4595V16.8518H91.9783V13.1361H76.7694V16.8581L76.7756 16.8518ZM106.125 22.4782C105.802 22.3039 105.448 22.1733 105.081 22.0737C105.361 21.9928 105.628 21.8932 105.876 21.7687C106.561 21.4139 107.101 20.916 107.486 20.2749C107.872 19.6339 108.07 18.8995 108.07 18.0655C108.07 17.1132 107.81 16.2606 107.294 15.5074C106.778 14.7606 106.051 14.1756 105.118 13.7523C104.186 13.3353 103.117 13.1237 101.924 13.1237H93.613V31.8576H102.085C103.341 31.8576 104.46 31.6398 105.448 31.1979C106.43 30.756 107.194 30.1461 107.741 29.3556C108.282 28.5714 108.555 27.6752 108.555 26.6669C108.555 25.7396 108.344 24.9118 107.915 24.1773C107.486 23.4429 106.896 22.8766 106.131 22.472L106.125 22.4782ZM97.6344 16.2792H101.308C101.818 16.2792 102.265 16.3726 102.657 16.5531C103.048 16.7336 103.353 16.9949 103.571 17.3372C103.788 17.6734 103.9 18.0717 103.9 18.5261C103.9 18.9804 103.788 19.4098 103.571 19.7646C103.353 20.1194 103.048 20.387 102.657 20.5799C102.265 20.7729 101.818 20.8663 101.308 20.8663H97.6344V16.273V16.2792ZM103.962 27.6129C103.726 27.9677 103.39 28.2416 102.962 28.4345C102.527 28.6274 102.035 28.7208 101.47 28.7208H97.6344V23.9159H101.47C102.023 23.9159 102.514 24.0218 102.949 24.2271C103.378 24.4325 103.72 24.7188 103.956 25.0922C104.192 25.4657 104.317 25.8889 104.317 26.3681C104.317 26.8474 104.198 27.2582 103.962 27.6129ZM122.435 24.2956C123.473 23.7977 124.274 23.0944 124.847 22.1919C125.418 21.2894 125.704 20.2438 125.704 19.0489C125.704 17.8539 125.425 16.8456 124.865 15.9494C124.305 15.0531 123.51 14.3622 122.485 13.8706C121.459 13.3789 120.272 13.1361 118.916 13.1361H110.725V31.8701H114.871V25.0487H117.568L121.366 31.8701H126.096L121.819 24.5446C122.031 24.4699 122.242 24.3889 122.441 24.2956H122.435ZM121.092 20.4679C120.862 20.86 120.533 21.165 120.104 21.3704C119.675 21.582 119.172 21.6878 118.594 21.6878H114.864V16.5032H118.594C119.172 16.5032 119.675 16.6091 120.104 16.8144C120.533 17.0199 120.862 17.3248 121.092 17.7107C121.322 18.0966 121.441 18.5572 121.441 19.0799C121.441 19.6028 121.322 20.0633 121.092 20.4554V20.4679ZM133.946 13.1361L127.264 31.8701H131.472L132.796 27.7374H139.733L141.15 31.8701H145.277L138.433 13.1361H133.946ZM133.735 24.6006L135.885 17.9908L136.14 16.7896L136.395 17.9908L138.695 24.6006H133.735ZM146.65 31.8701H150.927V13.1361H146.65V31.8701ZM166.012 25.808L157.963 13.1361H153.929V31.8701H157.708V19.1982L165.714 31.8701H169.791V13.1361H166.012V25.808ZM185.69 23.7106C185.287 22.9326 184.714 22.2791 183.987 21.75C183.26 21.221 182.421 20.8724 181.476 20.6919L178.294 20.0384C177.797 19.9202 177.399 19.7148 177.107 19.4161C176.814 19.1173 176.665 18.7439 176.665 18.302C176.665 17.8974 176.771 17.5489 176.988 17.2501C177.2 16.9514 177.505 16.7211 177.89 16.5531C178.275 16.385 178.723 16.3041 179.232 16.3041C179.742 16.3041 180.202 16.3913 180.594 16.5655C180.985 16.7398 181.29 16.9825 181.507 17.2999C181.725 17.6174 181.837 17.9721 181.837 18.3767H185.983C185.958 17.2875 185.653 16.3227 185.081 15.4887C184.51 14.6486 183.708 13.9951 182.688 13.522C181.669 13.049 180.501 12.8125 179.195 12.8125C177.89 12.8125 176.734 13.0553 175.721 13.5469C174.708 14.0386 173.912 14.717 173.346 15.5884C172.781 16.4597 172.495 17.4493 172.495 18.5634C172.495 19.4659 172.675 20.2812 173.042 21.0031C173.408 21.7314 173.924 22.3351 174.589 22.8143C175.261 23.2936 176.032 23.6296 176.914 23.8164L180.283 24.5134C180.836 24.6441 181.271 24.8869 181.594 25.2354C181.917 25.5839 182.073 26.0134 182.073 26.5362C182.073 26.9532 181.955 27.3329 181.719 27.6627C181.482 27.9926 181.153 28.2477 180.73 28.4282C180.308 28.6087 179.81 28.6959 179.239 28.6959C178.667 28.6959 178.126 28.5963 177.66 28.3971C177.194 28.198 176.833 27.9117 176.578 27.5382C176.317 27.1711 176.193 26.7416 176.193 26.2624H172.048C172.066 27.4324 172.377 28.4594 172.992 29.3556C173.601 30.2456 174.44 30.9428 175.509 31.4406C176.578 31.9386 177.803 32.1875 179.183 32.1875C180.562 32.1875 181.806 31.9323 182.875 31.4219C183.95 30.9116 184.783 30.2083 185.386 29.3121C185.989 28.4158 186.287 27.4013 186.287 26.2686C186.287 25.3412 186.082 24.4886 185.678 23.7043L185.69 23.7106Z" fill="black"/>
<path d="M13.1954 2.2875L2.78443 12.7125C1.32389 14.175 0.5 16.1625 0.5 18.2375V36.875C0.5 38.6 1.89812 40 3.62081 40H22.2333C24.3055 40 26.2841 39.175 27.7509 37.7125L38.1619 27.2875C39.6224 25.825 40.4463 23.8375 40.4463 21.7625V3.125C40.4463 1.4 39.0482 0 37.3255 0H18.713C16.6408 0 14.6622 0.825 13.1954 2.2875Z" fill="url(#paint0_linear_2633_21750)"/>
<path d="M30.4596 10H5.49316V35H30.4596V10Z" fill="black"/>
<path d="M19.225 29.375H8.61426V31.875H19.225V29.375Z" fill="white"/>
</g>
<defs>
<linearGradient id="paint0_linear_2633_21750" x1="1.03054" y1="39.2" x2="39.636" y2="1.1831" gradientUnits="userSpaceOnUse">
<stop stop-color="#FF9419"/>
<stop offset="0.43" stop-color="#FF021D"/>
<stop offset="0.99" stop-color="#E600FF"/>
</linearGradient>
<clipPath id="clip0_2633_21750">
<rect width="186" height="40" fill="white" transform="translate(0.5)"/>
</clipPath>
</defs>
</svg>
