<svg width="198" height="40" viewBox="0 0 198 40" fill="none" xmlns="http://www.w3.org/2000/svg">
<g clip-path="url(#clip0_2633_21760)">
<path d="M56.3965 10.3477H59.5988V27.1665H73.3864V30.2741H56.3965V10.3477Z" fill="black"/>
<path d="M101.619 10.3477V13.4553H86.719V18.4513H100.112V21.5588H86.719V27.1665H101.619V30.2741H83.5171V10.3477H101.619Z" fill="black"/>
<path d="M134.961 30.2741H131.998L116.86 14.4837V30.2741H113.657V10.3477H117.151L131.76 25.584V10.3477H134.961V30.2741Z" fill="black"/>
<path d="M156.228 27.3594C160.726 27.3594 163.083 24.806 163.083 19.8942V10.3477H166.286V20.1446C166.286 26.8873 162.977 30.5512 156.228 30.5512C149.479 30.5512 146.171 26.8873 146.171 20.1446V10.3477H149.373V19.8942C149.373 24.806 151.728 27.3594 156.228 27.3594Z" fill="black"/>
<path d="M181.893 10.3477H196.001V13.4508H182.211C180.12 13.4508 179.008 14.2554 179.008 16.0597C179.008 17.753 180.094 18.5865 182.211 18.6419L191.156 18.8635C195.231 18.9743 197.243 21.0269 197.243 24.4402C197.243 27.9867 194.994 30.2697 191.078 30.2697H176.203V27.1665H190.547C192.824 27.1665 194.041 26.3065 194.041 24.4757C194.041 22.8111 193.062 22.0886 190.786 22.0376L181.734 21.8159C178.11 21.7317 175.816 19.4287 175.816 16.0153C175.805 12.7061 177.972 10.3477 181.893 10.3477Z" fill="black"/>
<mask id="mask0_2633_21760" style="mask-type:luminance" maskUnits="userSpaceOnUse" x="0" y="0" width="36" height="40">
<path d="M35.3853 0.246094H0.368164V39.876H35.3853V0.246094Z" fill="white"/>
</mask>
<g mask="url(#mask0_2633_21760)">
<path d="M10.3741 29.9685L0.368164 39.876V13.4557C0.368164 11.2551 1.21475 9.31783 2.59185 7.9518L10.3678 0.246094L10.3741 29.9685Z" fill="black"/>
<path d="M35.386 20.0625H20.3795L10.3735 29.97H22.0376C23.964 29.9588 26.2316 29.1131 27.5961 27.7681L35.386 20.0625Z" fill="black"/>
</g>
</g>
<defs>
<clipPath id="clip0_2633_21760">
<rect width="197" height="40" fill="white" transform="translate(0.25)"/>
</clipPath>
</defs>
</svg>
