<svg width="127" height="40" viewBox="0 0 127 40" fill="none" xmlns="http://www.w3.org/2000/svg">
<path d="M65.0895 10.0208C65.6415 10.5157 65.9902 10.9524 66.1354 11.3307C66.31 11.7093 66.31 12.1023 66.1354 12.5096C65.9902 12.8882 65.6706 13.354 65.1766 13.9068L51.3619 29.9314C50.8681 30.4553 50.4323 30.8046 50.0545 30.9793C49.6768 31.1831 49.2992 31.2122 48.9215 31.0665C48.573 30.921 48.1517 30.6445 47.6575 30.2369C47.1636 29.7424 46.8295 29.3204 46.6553 28.9708C46.4808 28.5924 46.4808 28.1994 46.6553 27.7919C46.8586 27.3843 47.1927 26.9186 47.6575 26.3947L61.4725 10.3701C62.1989 9.5844 62.7944 9.16235 63.259 9.10398C63.753 9.0456 64.3631 9.35122 65.0895 10.0208ZM47.7012 10.0208C48.195 9.58429 48.6162 9.30776 48.9649 9.19122C49.3428 9.07468 49.706 9.11836 50.0545 9.32224C50.4323 9.49694 50.8536 9.84623 51.3182 10.3701L65.1332 26.3947C65.6272 26.9186 65.9612 27.3843 66.1354 27.7919C66.3097 28.1994 66.3243 28.5924 66.1791 28.9708C66.0338 29.3204 65.6852 29.7424 65.1332 30.2369C64.639 30.6736 64.2032 30.9502 63.8258 31.0665C63.4771 31.212 63.1139 31.1829 62.7362 30.9793C62.3875 30.8048 61.9517 30.4555 61.4288 29.9314L47.6141 13.9068C47.1491 13.3829 46.8295 12.9172 46.6553 12.5096C46.4808 12.1023 46.4808 11.7093 46.6553 11.3307C46.8295 10.9234 47.1781 10.4868 47.7012 10.0208ZM84.7305 30.8482C83.888 30.8482 83.2634 30.6881 82.8566 30.3679C82.4498 30.0477 82.2465 29.6111 82.2465 29.058L82.5517 27.6174C82.3191 27.9955 81.9268 28.4467 81.3748 28.9708C80.8227 29.4657 80.0965 29.9169 79.1959 30.3245C78.2952 30.7028 77.2058 30.892 75.9276 30.892C74.562 30.892 73.2691 30.6155 72.0487 30.0624C70.8578 29.4801 69.7973 28.6942 68.8675 27.7046C67.9669 26.6856 67.2407 25.5358 66.6886 24.2552C66.1656 22.9453 65.904 21.5481 65.904 20.0633C65.904 18.637 66.1656 17.298 66.6886 16.0463C67.2407 14.7657 67.9815 13.6305 68.9112 12.6407C69.8408 11.6511 70.9012 10.8796 72.0924 10.3263C73.3126 9.74429 74.5909 9.45327 75.9276 9.45327C77.1186 9.45327 78.1209 9.61337 78.9344 9.93358C79.7769 10.2536 80.4887 10.661 81.0698 11.1559C81.6508 11.6219 82.1302 12.1168 82.508 12.6407L82.2465 11.3745C82.2465 10.7339 82.4498 10.2536 82.8566 9.93358C83.2632 9.58398 83.9024 9.40928 84.7742 9.40949C85.5875 9.40949 86.1686 9.54051 86.5173 9.80256C86.8658 10.0356 87.0837 10.3703 87.1709 10.8067C87.2582 11.2142 87.3018 11.68 87.3016 12.2041V28.1849C87.3016 28.6794 87.258 29.1305 87.1709 29.5383C87.0839 29.9457 86.8515 30.2659 86.4736 30.4989C86.1251 30.732 85.5441 30.8482 84.7305 30.8482ZM76.7119 25.7837C77.6996 25.7837 78.5857 25.5362 79.3701 25.0413C80.1547 24.5466 80.7795 23.8771 81.2443 23.0328C81.738 22.1597 81.9849 21.1991 81.9849 20.1509C81.9849 19.0158 81.738 18.0262 81.2443 17.1821C80.7501 16.338 80.0964 15.683 79.283 15.217C78.4986 14.7226 77.6125 14.4752 76.6248 14.475C75.5497 14.475 74.5909 14.7369 73.7485 15.2608C72.906 15.7557 72.2378 16.4398 71.7438 17.3131C71.279 18.1572 71.0466 19.1178 71.0466 20.195C71.0466 21.2428 71.2936 22.1887 71.7875 23.0328C72.2703 23.8654 72.9612 24.5576 73.7922 25.0413C74.6636 25.5362 75.6368 25.7837 76.7119 25.7837ZM100.661 30.9358C99.2369 30.9358 98.0167 30.7902 96.9998 30.4989C95.9828 30.2077 95.1548 29.7566 94.5158 29.1456C93.8766 28.5341 93.3972 27.7481 93.0776 26.7874C92.7872 25.7978 92.6419 24.6335 92.6419 23.2945V4.78114C92.6419 4.25726 92.6855 3.80613 92.7727 3.42776C92.8888 3.04917 93.1212 2.75804 93.4699 2.55437C93.8476 2.32151 94.4286 2.20508 95.213 2.20508C96.0266 2.20508 96.6076 2.32161 96.9562 2.55468C97.334 2.78734 97.5664 3.10744 97.6534 3.515C97.7697 3.89337 97.8279 4.31542 97.8279 4.78114V23.12C97.8279 23.7311 97.8715 24.2259 97.9586 24.6044C98.0747 24.9828 98.2345 25.274 98.438 25.4778C98.6702 25.6523 98.9607 25.7832 99.3094 25.8706C99.6873 25.9288 100.138 25.9578 100.661 25.9578C101.213 25.958 101.677 26.0017 102.055 26.0889C102.462 26.1762 102.767 26.3946 102.97 26.744C103.173 27.064 103.275 27.6026 103.275 28.3597C103.275 29.1746 103.145 29.7713 102.883 30.1496C102.651 30.499 102.331 30.7174 101.924 30.8048C101.547 30.8919 101.126 30.9358 100.661 30.9358ZM90.8551 9.84602L95.3438 9.89012L101.358 9.71531C101.852 9.71531 102.287 9.77348 102.665 9.8898C103.072 9.97715 103.391 10.21 103.624 10.5884C103.856 10.938 103.973 11.5202 103.973 12.3352C103.973 13.0921 103.856 13.6597 103.624 14.0378C103.391 14.4164 103.086 14.6639 102.709 14.7802C102.331 14.8675 101.895 14.9112 101.401 14.9112L95.5617 14.824L90.7243 14.8674C89.998 14.8383 89.4896 14.6346 89.1991 14.2564C88.9375 13.8486 88.8068 13.1935 88.8068 12.2911C88.8068 11.447 88.9666 10.8357 89.2862 10.4574C89.6349 10.05 90.1579 9.84602 90.8551 9.84602ZM123.486 30.8482C122.643 30.8482 122.019 30.6881 121.612 30.3679C121.205 30.0477 121.002 29.6111 121.002 29.058L121.307 27.6174C121.074 27.9955 120.682 28.4467 120.13 28.9708C119.578 29.4657 118.852 29.9169 117.951 30.3245C117.05 30.7028 115.961 30.892 114.682 30.892C113.317 30.892 112.024 30.6155 110.804 30.0624C109.613 29.4801 108.552 28.6942 107.623 27.7046C106.722 26.6856 105.995 25.5358 105.443 24.2552C104.921 22.9453 104.659 21.5481 104.659 20.0633C104.659 18.637 104.921 17.298 105.443 16.0463C105.995 14.7657 106.736 13.6305 107.666 12.6407C108.596 11.6511 109.656 10.8796 110.848 10.3263C112.068 9.74429 113.346 9.45327 114.682 9.45327C115.874 9.45327 116.876 9.61337 117.69 9.93358C118.532 10.2536 119.244 10.661 119.825 11.1559C120.406 11.6219 120.885 12.1168 121.263 12.6407L121.002 11.3745C121.002 10.7339 121.205 10.2536 121.612 9.93358C122.018 9.58398 122.657 9.40928 123.529 9.40949C124.343 9.40949 124.924 9.54051 125.272 9.80256C125.621 10.0356 125.839 10.3703 125.926 10.8067C126.013 11.2142 126.057 11.68 126.057 12.2041V28.1849C126.057 28.6794 126.013 29.1305 125.926 29.5383C125.839 29.9457 125.606 30.2659 125.229 30.4989C124.88 30.732 124.299 30.8482 123.486 30.8482ZM115.467 25.7837C116.455 25.7837 117.341 25.5362 118.125 25.0413C118.91 24.5466 119.534 23.8771 119.999 23.0328C120.493 22.1597 120.74 21.1991 120.74 20.1509C120.74 19.0158 120.493 18.0262 119.999 17.1821C119.505 16.338 118.852 15.683 118.038 15.217C117.254 14.7226 116.368 14.4752 115.38 14.475C114.305 14.475 113.346 14.7369 112.504 15.2608C111.661 15.7557 110.993 16.4398 110.499 17.3131C110.034 18.1572 109.802 19.1178 109.802 20.195C109.802 21.2428 110.049 22.1887 110.542 23.0328C111.025 23.8654 111.716 24.5576 112.547 25.0413C113.419 25.5362 114.392 25.7837 115.467 25.7837Z" fill="black"/>
<path d="M2.72674 3.53291C3.36016 2.6885 4.58207 2.69386 5.32866 3.44L13.6138 11.7156C14.8794 12.9795 15.8839 14.4809 16.5701 16.1339C17.2563 17.787 17.6107 19.5593 17.6131 21.3496C17.6167 24.6874 16.3977 27.9104 14.1872 30.4076C13.8927 30.7402 13.3822 30.7392 13.0681 30.4252L3.99894 21.3669C2.73344 20.1029 1.72892 18.6015 1.04276 16.9484C0.356613 15.2953 0.00227884 13.5229 8.25766e-06 11.7326C-0.00324328 8.77542 0.953832 5.89715 2.72674 3.53291ZM31.1144 3.38425C31.8613 2.63811 33.0832 2.63307 33.7166 3.47779C35.4894 5.84222 36.4464 8.72023 36.4433 11.6775C36.441 13.4678 36.0867 15.2402 35.4004 16.8933C34.7142 18.5464 33.7097 20.0478 32.4441 21.3118L23.3752 30.3701C23.0609 30.6838 22.5507 30.6847 22.2561 30.3521C20.0454 27.8549 18.8262 24.6316 18.83 21.2935C18.8323 19.5032 19.1867 17.7308 19.8729 16.0777C20.5591 14.4246 21.5636 12.9232 22.8292 11.6592L31.1144 3.38425Z" fill="url(#paint0_radial_2633_21755)"/>
<path d="M6.97067 37.696C6.22564 38.4438 5.00688 38.451 4.34076 37.6318C2.49549 35.3635 1.26793 32.7474 0.866495 30.1742C0.427967 27.3625 1.00796 24.8088 2.48323 22.9609C2.76049 22.6138 3.27289 22.6157 3.58725 22.9294L12.0868 31.4201C12.2379 31.5712 12.3229 31.7761 12.3231 31.99C12.3233 32.2038 12.2388 32.4089 12.0881 32.5603L6.97067 37.696Z" fill="url(#paint1_linear_2633_21755)"/>
<path d="M32.1028 37.5752C31.4367 38.3944 30.218 38.3871 29.4729 37.6394L24.3552 32.5033C24.0412 32.1884 24.0418 31.6775 24.3568 31.3632L32.8564 22.8728C33.1707 22.5591 33.6831 22.5572 33.9604 22.9043C35.4353 24.7522 36.0153 27.3059 35.5768 30.1175C35.1757 32.6907 33.9478 35.3068 32.1028 37.5752Z" fill="url(#paint2_linear_2633_21755)"/>
<defs>
<radialGradient id="paint0_radial_2633_21755" cx="0" cy="0" r="1" gradientTransform="matrix(5.28029 34.2719 -31.7894 4.91666 18.2965 19.743)" gradientUnits="userSpaceOnUse">
<stop stop-color="#AA95FF"/>
<stop offset="0.546" stop-color="#9176FF"/>
<stop offset="0.696" stop-color="#7F62F3"/>
</radialGradient>
<linearGradient id="paint1_linear_2633_21755" x1="16.0886" y1="30.6479" x2="4.71126" y2="41.5303" gradientUnits="userSpaceOnUse">
<stop offset="0.15" stop-color="#AA95FF"/>
<stop offset="0.65" stop-color="#9176FF"/>
<stop offset="0.93" stop-color="#7F62F3"/>
</linearGradient>
<linearGradient id="paint2_linear_2633_21755" x1="20.8203" y1="30.3311" x2="32.1976" y2="41.2135" gradientUnits="userSpaceOnUse">
<stop offset="0.148" stop-color="#AA95FF"/>
<stop offset="0.65" stop-color="#9176FF"/>
<stop offset="0.932" stop-color="#7F62F3"/>
</linearGradient>
</defs>
</svg>
