<svg viewBox="0 0 560 320" preserveAspectRatio="xMidYMid slice" fill="none" xmlns="http://www.w3.org/2000/svg" aria-hidden="true">
  <defs>
    <linearGradient id="suFade" x1="0" y1="0" x2="1" y2="0">
      <stop offset="0" stop-color="#000"/>
      <stop offset="0.32" stop-color="#fff"/>
      <stop offset="0.68" stop-color="#fff"/>
      <stop offset="1" stop-color="#000"/>
    </linearGradient>
    <mask id="suFadeMask"><rect width="560" height="320" fill="url(#suFade)"/></mask>
    <filter id="suGlow" x="-60%" y="-60%" width="220%" height="220%"><feGaussianBlur stdDeviation="4"/></filter>
  </defs>

  <!-- Subsetting Venn -->
  <g mask="url(#suFadeMask)">
    <g fill="none" stroke="#FBFBFB" stroke-opacity="0.22" stroke-width="1">
      <circle cx="228.0" cy="115.0" r="70"/>
      <circle cx="332.0" cy="115.0" r="70"/>
      <circle cx="280.0" cy="205.0" r="70"/>
    </g>
    <g fill="none" stroke="#27D9B6" stroke-width="2.5" stroke-opacity="0.5" filter="url(#suGlow)">
      <path d="M265.4 136.5 A70 70 0 0 1 294.6 136.5 A70 70 0 0 1 280.0 161.9 A70 70 0 0 1 265.4 136.5 Z"/>
    </g>
    <g fill="none" stroke="#14C19A" stroke-width="1" stroke-opacity="0.95">
      <path d="M265.4 136.5 A70 70 0 0 1 294.6 136.5 A70 70 0 0 1 280.0 161.9 A70 70 0 0 1 265.4 136.5 Z"/>
    </g>
    <g fill="none" stroke="#6FF0D4" stroke-width="1" stroke-opacity="0.3">
      <path d="M265.4 136.5 A70 70 0 0 1 294.6 136.5 A70 70 0 0 1 280.0 161.9 A70 70 0 0 1 265.4 136.5 Z"/>
    </g>
  </g>
</svg>
