<svg viewBox="0 0 1920 1080" preserveAspectRatio="xMidYMid slice" xmlns="http://www.w3.org/2000/svg" role="img" aria-label="">
  <defs>
    <radialGradient id="cpOrange" cx="3%" cy="-6%" r="58%">
      <stop offset="0" stop-color="#F0A86A"/>
      <stop offset="42%" stop-color="#CC8A8C" stop-opacity="0.55"/>
      <stop offset="100%" stop-color="#F0A86A" stop-opacity="0"/>
    </radialGradient>
    <radialGradient id="cpLavender" cx="7%" cy="60%" r="50%">
      <stop offset="0" stop-color="#AEA4EA"/>
      <stop offset="55%" stop-color="#8E86C9" stop-opacity="0.45"/>
      <stop offset="100%" stop-color="#AEA4EA" stop-opacity="0"/>
    </radialGradient>
    <radialGradient id="cpTeal" cx="99%" cy="106%" r="60%">
      <stop offset="0" stop-color="#37D2A8"/>
      <stop offset="50%" stop-color="#1E9C86" stop-opacity="0.5"/>
      <stop offset="100%" stop-color="#37D2A8" stop-opacity="0"/>
    </radialGradient>
    <filter id="cpGrain" x="0" y="0" width="100%" height="100%">
      <feTurbulence type="fractalNoise" baseFrequency="0.9" numOctaves="2" stitchTiles="stitch" result="n"/>
      <feColorMatrix in="n" type="saturate" values="0" result="m"/>
      <feComponentTransfer in="m"><feFuncA type="linear" slope="0.07"/></feComponentTransfer>
    </filter>
  </defs>

  <rect width="1920" height="1080" fill="#141A2E"/>
  <rect width="1920" height="1080" fill="url(#cpOrange)"/>
  <rect width="1920" height="1080" fill="url(#cpLavender)"/>
  <rect width="1920" height="1080" fill="url(#cpTeal)"/>
  <rect width="1920" height="1080" filter="url(#cpGrain)"/>
  <g fill="none" stroke="#FBFBFB" stroke-opacity="0.5" stroke-width="2.5" stroke-linecap="round" stroke-linejoin="round">
    <path d="M1175.7 283.0 L1176.1 283.3 L1176.5 283.7 L1176.8 284.1 L1177.1 284.5 L1177.4 284.9 L1177.7 285.4 L1177.9 285.8 L1178.1 286.2 L1178.2 286.6 L1178.3 287.0 L1178.3 287.4 L1178.3 287.7 L1178.2 288.1 L1178.0 288.4 L1177.8 288.7 L1177.6 288.9 L1177.3 289.1 L1176.9 289.3 L1176.5 289.4 L1176.1 289.5 L1175.5 289.6 L1175.0 289.6 L1174.3 289.5 L1173.7 289.4 L1173.0 289.2 L1172.2 289.0 L1171.4 288.7 L1170.6 288.4 L1169.7 288.0 L1168.8 287.5 L1167.9 287.0 L1167.0 286.4 L1166.1 285.8 L1165.1 285.2 L1164.1 284.4 L1163.2 283.7 L1162.2 282.9 L1161.3 282.0 L1160.4 281.1 L1159.5 280.2 L1158.6 279.2 L1157.8 278.2 L1157.0 277.2 L1156.2 276.1 L1155.5 275.1 L1154.9 274.0 L1154.3 272.9 L1153.7 271.8 L1153.3 270.7 L1152.9 269.7 L1152.6 268.6 L1152.3 267.6 L1152.2 266.5 L1152.1 265.6 L1152.2 264.6 L1152.3 263.7 L1152.5 262.8 L1152.8 262.0 L1153.2 261.3 L1153.7 260.6 L1154.4 259.9 L1155.1 259.4 L1155.9 258.9 L1156.8 258.5 L1157.8 258.2 L1158.9 258.0 L1160.1 257.8 L1161.4 257.8 L1162.8 257.8 L1164.2 258.0 L1165.8 258.2 L1167.4 258.6 L1169.1 259.1 L1170.8 259.6 L1172.7 260.3 L1174.5 261.1 L1176.5 262.0 L1178.4 263.0 L1180.4 264.1 L1182.5 265.3 L1184.5 266.6 L1186.6 268.0 L1188.7 269.5 L1190.8 271.0 L1192.8 272.7 L1194.9 274.4 L1196.9 276.3 L1198.9 278.2 L1200.9 280.1 L1202.8 282.2 L1204.6 284.3 L1206.4 286.4 L1208.1 288.6 L1209.7 290.8 L1211.2 293.0 L1212.6 295.3 L1213.9 297.5 L1215.1 299.8 L1216.2 302.1 L1217.1 304.3 L1218.0 306.6 L1218.6 308.8 L1219.2 310.9 L1219.6 313.1 L1219.8 315.1 L1219.9 317.1 L1219.8 319.1 L1219.5 320.9 L1219.1 322.7 L1218.6 324.4 L1217.8 325.9 L1216.9 327.4 L1215.8 328.7 L1214.6 330.0 L1213.1 331.0 L1211.6 332.0 L1209.8 332.8 L1207.9 333.5 L1205.9 334.0 L1203.7 334.4 L1201.4 334.6 L1198.9 334.6 L1196.3 334.5 L1193.5 334.2 L1190.7 333.8 L1187.7 333.2 L1184.7 332.4 L1181.5 331.5 L1178.3 330.3 L1175.0 329.1 L1171.7 327.6 L1168.3 326.0 L1164.8 324.3 L1161.4 322.4 L1157.9 320.3 L1154.4 318.1 L1150.9 315.8 L1147.4 313.3 L1144.0 310.8 L1140.6 308.1 L1137.3 305.3 L1134.0 302.4 L1130.8 299.4 L1127.7 296.3 L1124.8 293.2 L1121.9 290.0 L1119.1 286.7 L1116.5 283.4 L1114.1 280.1 L1111.8 276.8 L1109.7 273.5 L1107.7 270.2 L1106.0 266.9 L1104.4 263.6 L1103.0 260.4 L1101.9 257.2 L1100.9 254.1 L1100.2 251.1 L1099.7 248.1 L1099.5 245.3 L1099.5 242.6 L1099.7 240.0 L1100.1 237.5 L1100.8 235.2 L1101.8 233.1 L1102.9 231.1 L1104.3 229.2 L1106.0 227.6 L1107.9 226.2 L1110.0 224.9 L1112.3 223.9 L1114.9 223.0 L1117.6 222.4 L1120.6 222.0 L1123.7 221.9 L1127.1 221.9 L1130.6 222.2 L1134.3 222.7 L1138.2 223.5 L1142.2 224.5 L1146.3 225.7 L1150.5 227.2 L1154.9 228.9 L1159.3 230.8 L1163.8 232.9 L1168.4 235.3 L1173.1 237.9 L1177.7 240.7 L1182.4 243.6 L1187.1 246.8 L1191.8 250.2 L1196.4 253.7 L1201.0 257.4 L1205.5 261.3 L1209.9 265.2 L1214.3 269.4 L1218.5 273.6 L1222.6 278.0 L1226.6 282.4 L1230.4 287.0 L1234.0 291.5 L1237.5 296.2 L1240.7 300.9 L1243.7 305.6 L1246.5 310.3 L1249.1 315.0 L1251.4 319.6 L1253.4 324.3 L1255.2 328.8 L1256.7 333.3 L1257.9 337.7 L1258.8 342.0 L1259.4 346.2 L1259.8 350.3 L1259.8 354.2 L1259.4 357.9 L1258.8 361.5 L1257.9 364.9 L1256.6 368.1 L1255.1 371.0 L1253.2 373.8 L1251.0 376.3 L1248.5 378.5 L1245.7 380.6 L1242.6 382.3 L1239.3 383.8 L1235.6 385.0 L1231.7 385.9 L1227.5 386.5 L1223.1 386.8 L1218.5 386.9 L1213.6 386.6 L1208.6 386.0 L1203.3 385.2 L1197.9 384.0 L1192.3 382.5 L1186.6 380.8 L1180.7 378.7 L1174.8 376.4 L1168.7 373.8 L1162.6 370.9 L1156.4 367.8 L1150.3 364.4 L1144.1 360.7 L1137.9 356.8 L1131.8 352.7 L1125.7 348.4 L1119.7 343.9 L1113.7 339.2 L1107.9 334.3 L1102.3 329.3 L1096.7 324.1 L1091.4 318.8 L1086.2 313.4 L1081.3 308.0 L1076.6 302.4 L1072.1 296.8 L1067.9 291.2 L1064.0 285.6 L1060.4 279.9 L1057.0 274.3 L1054.0 268.8 L1051.4 263.3 L1049.0 257.9 L1047.0 252.5 L1045.4 247.4 L1044.1 242.3 L1043.3 237.4 L1042.8 232.7 L1042.6 228.2 L1042.9 223.9 L1043.6 219.8 L1044.6 216.0 L1046.0 212.4 L1047.9 209.1 L1050.0 206.0 L1052.6 203.3 L1055.6 200.9 L1058.9 198.8 L1062.5 197.0 L1066.5 195.6 L1070.8 194.5 L1075.5 193.8 L1080.4 193.4 L1085.7 193.4 L1091.2 193.7 L1096.9 194.4 L1102.9 195.5 L1109.2 197.0 L1115.6 198.8 L1122.2 200.9 L1129.0 203.5 L1135.9 206.3 L1142.9 209.6 L1150.0 213.1 L1157.2 217.0 L1164.4 221.2 L1171.7 225.7 L1178.9 230.5 L1186.1 235.6 L1193.3 240.9 L1200.4 246.5 L1207.3 252.3 L1214.2 258.3 L1220.9 264.6 L1227.4 271.0 L1233.8 277.5 L1239.9 284.2 L1245.8 291.1 L1251.4 298.0 L1256.7 305.0 L1261.7 312.0 L1266.4 319.1 L1270.8 326.1 L1274.8 333.2 L1278.4 340.2 L1281.7 347.2 L1284.5 354.0 L1286.9 360.8 L1288.9 367.4 L1290.5 373.9 L1291.7 380.2 L1292.3 386.3 L1292.6 392.2 L1292.3 397.8 L1291.7 403.2 L1290.5 408.3 L1288.9 413.2 L1286.8 417.7 L1284.3 421.9 L1281.4 425.7 L1277.9 429.2 L1274.1 432.3 L1269.8 435.1 L1265.2 437.4 L1260.1 439.4 L1254.6 440.9 L1248.8 442.1 L1242.6 442.8 L1236.1 443.1 L1229.3 442.9 L1222.1 442.3 L1214.7 441.3 L1207.1 439.9 L1199.2 438.0 L1191.1 435.8 L1182.8 433.1 L1174.4 430.0 L1165.9 426.5 L1157.3 422.6 L1148.5 418.4 L1139.8 413.7 L1131.0 408.8 L1122.3 403.5 L1113.6 397.9 L1104.9 391.9 L1096.4 385.7 L1087.9 379.3 L1079.7 372.6 L1071.6 365.6 L1063.7 358.5 L1056.1 351.2 L1048.7 343.7 L1041.6 336.2 L1034.9 328.5 L1028.4 320.7 L1022.4 312.9 L1016.7 305.1 L1011.4 297.3 L1006.5 289.5 L1002.0 281.7 L998.0 274.0 L994.5 266.5 L991.4 259.1 L988.9 251.8 L986.8 244.7 L985.3 237.9 L984.3 231.2 L983.7 224.9 L983.8 218.8 L984.3 213.0 L985.4 207.5 L987.0 202.4 L989.1 197.6 L991.8 193.2 L995.0 189.2 L998.6 185.7 L1002.8 182.5 L1007.4 179.8 L1012.5 177.6 L1018.1 175.8 L1024.1 174.5 L1030.5 173.7 L1037.3 173.3 L1044.5 173.4 L1052.0 174.1 L1059.9 175.2 L1068.1 176.8 L1076.5 178.9 L1085.2 181.5 L1094.2 184.5 L1103.3 188.0 L1112.6 192.0 L1122.0 196.5 L1131.5 201.4 L1141.1 206.7 L1150.7 212.4 L1160.4 218.5 L1170.0 225.0 L1179.6 231.8 L1189.1 239.0 L1198.4 246.5 L1207.6 254.3 L1216.6 262.4 L1225.4 270.7 L1234.0 279.2 L1242.3 287.9 L1250.2 296.8 L1257.9 305.8 L1265.2 314.9 L1272.1 324.2 L1278.5 333.4 L1284.6 342.7 L1290.2 352.0 L1295.3 361.2 L1299.9 370.4 L1304.0 379.4 L1307.6 388.4 L1310.6 397.2 L1313.1 405.8 L1315.0 414.1 L1316.3 422.3 L1317.0 430.1 L1317.2 437.7 L1316.7 445.0 L1315.7 451.9 L1314.0 458.4 L1311.8 464.6 L1309.0 470.3 L1305.6 475.6 L1301.6 480.5 L1297.1 484.9 L1292.0 488.8 L1286.3 492.2 L1280.2 495.1 L1273.5 497.5 L1266.4 499.3 L1258.8 500.7 L1250.7 501.4 L1242.3 501.7 L1233.4 501.3 L1224.2 500.5 L1214.6 499.1 L1204.8 497.1 L1194.6 494.6 L1184.2 491.6 L1173.6 488.0 L1162.9 484.0 L1152.0 479.4 L1140.9 474.3 L1129.8 468.8 L1118.7 462.8 L1107.6 456.4 L1096.5 449.6 L1085.4 442.4 L1074.5 434.8 L1063.7 426.9 L1053.1 418.6 L1042.7 410.0 L1032.5 401.2 L1022.7 392.2 L1013.1 382.9 L1003.9 373.5 L995.0 363.9 L986.6 354.2 L978.6 344.4 L971.0 334.6 L964.0 324.8 L957.4 314.9 L951.4 305.2 L946.0 295.5 L941.1 285.9 L936.8 276.5 L933.1 267.2 L930.0 258.2 L927.6 249.4 L925.8 240.9 L924.6 232.6 L924.1 224.8 L924.3 217.2 L925.1 210.1 L926.6 203.4 L928.7 197.1 L931.5 191.3 L934.9 185.9 L939.0 181.1 L943.7 176.8 L948.9 173.0 L954.8 169.7 L961.2 167.1 L968.2 165.0 L975.7 163.5 L983.8 162.5 L992.3 162.2 L1001.2 162.5 L1010.6 163.4 L1020.4 164.9 L1030.5 167.0 L1041.0 169.7 L1051.8 173.0 L1062.8 176.8 L1074.0 181.3 L1085.5 186.3 L1097.1 191.8 L1108.8 197.9 L1120.6 204.5 L1132.4 211.6 L1144.2 219.2 L1155.9 227.2 L1167.6 235.7 L1179.2 244.5 L1190.6 253.7 L1201.8 263.3 L1212.7 273.2 L1223.4 283.4 L1233.8 293.8 L1243.8 304.5 L1253.4 315.3 L1262.7 326.3 L1271.4 337.5 L1279.7 348.7 L1287.5 359.9 L1294.8 371.2 L1301.5 382.4 L1307.6 393.6 L1313.1 404.7 L1317.9 415.7 L1322.1 426.5 L1325.7 437.0 L1328.5 447.4 L1330.7 457.5 L1332.2 467.3 L1333.0 476.7 L1333.0 485.8 L1332.3 494.5 L1331.0 502.7 L1328.9 510.5 L1326.1 517.9 L1322.5 524.7 L1318.3 531.0 L1313.4 536.7 L1307.9 541.9 L1301.6 546.5 L1294.8 550.5 L1287.3 553.9 L1279.2 556.6 L1270.6 558.8 L1261.4 560.2 L1251.7 561.0 L1241.5 561.2 L1230.8 560.7 L1219.7 559.6 L1208.2 557.8 L1196.4 555.4 L1184.3 552.3 L1171.8 548.6 L1159.2 544.2 L1146.3 539.3 L1133.3 533.8 L1120.2 527.7 L1107.0 521.0 L1093.7 513.8 L1080.5 506.1 L1067.3 497.9 L1054.2 489.3 L1041.3 480.2 L1028.5 470.8 L1015.9 460.9 L1003.7 450.7 L991.7 440.3 L980.0 429.5 L968.8 418.5 L958.0 407.3 L947.6 396.0 L937.7 384.5 L928.3 372.9 L919.5 361.3 L911.2 349.7 L903.6 338.1 L896.6 326.6 L890.3 315.2 L884.6 304.0 L879.6 292.9 L875.4 282.1 L871.9 271.5 L869.1 261.2 L867.1 251.2 L865.9 241.6 L865.4 232.4 L865.7 223.7 L866.8 215.4 L868.6 207.6 L871.2 200.3 L874.6 193.5 L878.7 187.3 L883.6 181.8 L889.1 176.8 L895.4 172.4 L902.3 168.8 L909.9 165.7 L918.2 163.4 L927.0 161.7 L936.5 160.7 L946.5 160.5 L957.0 160.9 L967.9 162.0 L979.4 163.8 L991.2 166.4 L1003.5 169.6 L1016.0 173.5 L1028.9 178.1 L1042.0 183.4 L1055.3 189.3 L1068.8 195.8 L1082.4 202.9 L1096.1 210.7 L1109.8 219.0 L1123.4 227.8 L1137.1 237.2 L1150.6 247.0 L1163.9 257.3 L1177.1 268.0 L1190.0 279.2 L1202.6 290.6 L1214.9 302.4 L1226.9 314.5 L1238.4 326.9 L1249.4 339.4 L1260.0 352.1 L1270.1 365.0 L1279.6 377.9 L1288.4 390.9 L1296.7 403.8 L1304.3 416.8 L1311.3 429.6 L1317.5 442.4 L1323.0 455.0 L1327.7 467.3 L1331.7 479.5 L1334.9 491.3 L1337.3 502.9 L1338.9 514.0 L1339.7 524.8 L1339.7 535.2 L1338.8 545.1 L1337.1 554.5 L1334.6 563.3 L1331.3 571.7 L1327.2 579.4 L1322.3 586.5 L1316.6 593.0 L1310.1 598.9 L1302.9 604.0 L1295.0 608.5 L1286.4 612.3 L1277.1 615.4 L1267.1 617.7 L1256.6 619.3 L1245.4 620.1 L1233.7 620.2 L1221.5 619.6 L1208.9 618.2 L1195.8 616.1 L1182.3 613.2 L1168.4 609.6 L1154.2 605.3 L1139.8 600.3 L1125.2 594.7 L1110.4 588.3 L1095.4 581.3 L1080.4 573.7 L1065.4 565.5 L1050.4 556.7 L1035.5 547.3 L1020.7 537.5 L1006.0 527.2 L991.6 516.4 L977.4 505.2 L963.6 493.6 L950.0 481.7 L936.9 469.5 L924.3 457.1 L912.1 444.4 L900.4 431.6 L889.3 418.6 L878.8 405.6 L868.9 392.5 L859.7 379.4 L851.1 366.3 L843.3 353.4 L836.3 340.5 L830.0 327.9 L824.5 315.4 L819.8 303.3 L816.0 291.4 L812.9 279.8 L810.8 268.7 L809.5 257.9 L809.0 247.7 L809.5 237.9 L810.8 228.6 L812.9 219.9 L815.9 211.8 L819.8 204.3 L824.5 197.4 L830.0 191.3 L836.3 185.8 L843.4 181.0 L851.3 176.9 L859.9 173.6 L869.1 171.1 L879.1 169.3 L889.7 168.3 L901.0 168.0 L912.8 168.6 L925.1 169.9 L937.9 172.1 L951.2 175.0 L964.9 178.6 L978.9 183.1 L993.3 188.3 L1007.9 194.2 L1022.8 200.9 L1037.8 208.2 L1053.0 216.2 L1068.2 224.9 L1083.5 234.2 L1098.7 244.1 L1113.8 254.6 L1128.8 265.6 L1143.6 277.1 L1158.2 289.0 L1172.6 301.4 L1186.5 314.2 L1200.2 327.3 L1213.3 340.8 L1226.1 354.5 L1238.3 368.4 L1250.0 382.5 L1261.0 396.8 L1271.5 411.1 L1281.3 425.5 L1290.4 439.8 L1298.7 454.2 L1306.3 468.4 L1313.1 482.4 L1319.1 496.3 L1324.3 510.0 L1328.6 523.4 L1332.1 536.4 L1334.6 549.2 L1336.3 561.5 L1337.1 573.3 L1336.9 584.7 L1335.9 595.6 L1334.0 605.9 L1331.1 615.6 L1327.4 624.7 L1322.8 633.2 L1317.3 641.0 L1310.9 648.0 L1303.8 654.4 L1295.8 660.0 L1287.0 664.9 L1277.4 669.0 L1267.1 672.2 L1256.1 674.7 L1244.5 676.4 L1232.2 677.3 L1219.3 677.3 L1205.8 676.5 L1191.9 674.9 L1177.5 672.5 L1162.6 669.3 L1147.4 665.3 L1131.8 660.5 L1116.0 655.0 L1100.0 648.7 L1083.7 641.6 L1067.4 633.9 L1051.0 625.5 L1034.5 616.5 L1018.1 606.8 L1001.8 596.5 L985.6 585.7 L969.7 574.4 L953.9 562.6 L938.5 550.3 L923.4 537.7 L908.7 524.7 L894.4 511.3 L880.6 497.7 L867.4 483.9 L854.7 469.9 L842.6 455.7 L831.2 441.5 L820.5 427.3 L810.6 413.0 L801.4 398.8 L792.9 384.7 L785.3 370.7 L778.6 357.0 L772.7 343.5 L767.7 330.3 L763.6 317.4 L760.4 304.9 L758.1 292.8 L756.8 281.2 L756.4 270.1 L756.9 259.5 L758.4 249.5 L760.8 240.2 L764.2 231.4 L768.4 223.3 L773.6 216.0 L779.6 209.3 L786.6 203.5 L794.3 198.3 L802.9 194.0 L812.2 190.5 L822.4 187.8 L833.2 186.0 L844.7 184.9 L856.9 184.8 L869.7 185.4 L883.1 187.0 L897.0 189.3 L911.4 192.5 L926.2 196.6 L941.4 201.4 L956.9 207.1 L972.7 213.6 L988.7 220.8 L1004.9 228.8 L1021.3 237.5 L1037.7 246.9 L1054.1 257.0 L1070.5 267.7 L1086.8 279.0 L1102.9 290.9 L1118.8 303.3 L1134.5 316.2 L1149.9 329.6 L1164.9 343.3 L1179.5 357.5 L1193.6 371.9 L1207.2 386.7 L1220.3 401.7 L1232.8 416.8 L1244.6 432.1 L1255.8 447.5 L1266.2 462.9 L1275.9 478.3 L1284.8 493.6 L1292.8 508.9 L1300.1 523.9 L1306.4 538.8 L1311.9 553.4 L1316.4 567.7 L1320.0 581.7 L1322.7 595.2 L1324.4 608.3 L1325.2 621.0 L1325.0 633.1 L1323.8 644.7 L1321.6 655.6 L1318.5 666.0 L1314.4 675.7 L1309.4 684.6 L1303.5 692.9 L1296.6 700.4 L1288.9 707.1 L1280.3 713.0 L1270.9 718.1 L1260.6 722.4 L1249.6 725.9 L1237.8 728.4 L1225.4 730.2 L1212.2 731.0 L1198.4 731.0 L1184.1 730.1 L1169.2 728.3 L1153.8 725.7 L1138.0 722.2 L1121.8 717.9 L1105.2 712.7 L1088.4 706.8 L1071.3 700.0 L1054.1 692.5 L1036.7 684.2 L1019.3 675.2 L1001.8 665.6 L984.4 655.3 L967.1 644.3 L950.0 632.8 L933.1 620.8 L916.4 608.2 L900.0 595.2 L884.1 581.8 L868.5 567.9 L853.5 553.8 L838.9 539.4 L824.9 524.7 L811.6 509.9 L798.9 494.9 L786.9 479.9 L775.6 464.8 L765.2 449.7 L755.5 434.7 L746.6 419.8 L738.7 405.1 L731.6 390.6 L725.5 376.4 L720.2 362.5 L716.0 348.9 L712.7 335.8 L710.4 323.1 L709.1 310.9 L708.7 299.2 L709.4 288.1 L711.0 277.6 L713.6 267.8 L717.2 258.6 L721.8 250.2 L727.3 242.5 L733.7 235.6 L741.1 229.4 L749.3 224.1 L758.4 219.6 L768.3 216.0 L779.0 213.2 L790.4 211.4 L802.6 210.4 L815.4 210.2 L828.9 211.0 L843.0 212.7 L857.6 215.2 L872.7 218.7 L888.3 223.0 L904.3 228.1 L920.6 234.1 L937.1 241.0 L954.0 248.6 L971.0 257.0 L988.1 266.2 L1005.3 276.1 L1022.4 286.7 L1039.6 298.0 L1056.6 309.8 L1073.5 322.3 L1090.1 335.3 L1106.5 348.9 L1122.5 362.9 L1138.2 377.3 L1153.4 392.1 L1168.1 407.2 L1182.3 422.7 L1195.9 438.3 L1208.9 454.1 L1221.2 470.1 L1232.8 486.2 L1243.6 502.2 L1253.6 518.3 L1262.8 534.3 L1271.2 550.1 L1278.6 565.8 L1285.2 581.3 L1290.8 596.5 L1295.5 611.3 L1299.2 625.8 L1301.9 639.9 L1303.6 653.5 L1304.3 666.7 L1304.0 679.2 L1302.7 691.2 L1300.4 702.6 L1297.1 713.3 L1292.8 723.3 L1287.5 732.5 L1281.3 741.0 L1274.1 748.8 L1266.0 755.7 L1257.0 761.8 L1247.1 767.0 L1236.4 771.4 L1225.0 774.9 L1212.7 777.5 L1199.7 779.2 L1186.0 780.0 L1171.7 779.9 L1156.8 778.9 L1141.4 777.1 L1125.4 774.3 L1109.0 770.6 L1092.2 766.1 L1075.0 760.7 L1057.6 754.4 L1039.9 747.4 L1022.1 739.6 L1004.1 731.0 L986.1 721.6 L968.1 711.6 L950.1 700.9 L932.3 689.6 L914.6 677.7 L897.1 665.2 L879.9 652.2 L863.1 638.7 L846.7 624.8 L830.7 610.6 L815.2 596.0 L800.2 581.1 L785.9 566.0 L772.1 550.7 L759.1 535.2 L746.8 519.7 L735.3 504.2 L724.5 488.7 L714.6 473.3 L705.6 458.0 L697.5 442.8 L690.3 427.9 L684.0 413.3 L678.7 399.1 L674.4 385.1 L671.1 371.7 L668.8 358.7 L667.5 346.2 L667.2 334.2 L668.0 322.9 L669.7 312.1 L672.5 302.1 L676.3 292.8 L681.0 284.2 L686.7 276.3 L693.4 269.3 L701.0 263.1 L709.5 257.7 L718.8 253.1 L729.0 249.5 L740.0 246.7 L751.8 244.9 L764.3 243.9 L777.5 243.8 L791.3 244.7 L805.8 246.5 L820.8 249.1 L836.2 252.7 L852.2 257.2 L868.5 262.5 L885.2 268.7 L902.2 275.7 L919.3 283.6 L936.7 292.2 L954.2 301.7 L971.7 311.8 L989.2 322.7 L1006.7 334.2 L1024.1 346.4 L1041.2 359.1 L1058.2 372.4 L1074.8 386.3 L1091.2 400.6 L1107.1 415.3 L1122.5 430.4 L1137.5 445.8 L1151.9 461.5 L1165.7 477.5 L1178.8 493.6 L1191.3 509.8 L1203.0 526.1 L1214.0 542.5 L1224.1 558.8 L1233.4 575.1 L1241.8 591.2 L1249.4 607.1 L1256.0 622.8 L1261.6 638.2 L1266.3 653.2 L1269.9 667.9 L1272.6 682.2 L1274.3 696.0 L1274.9 709.2 L1274.5 721.9 L1273.1 734.0 L1270.7 745.5 L1267.3 756.3 L1262.9 766.4 L1257.5 775.7 L1251.1 784.3 L1243.8 792.0 L1235.5 799.0 L1226.4 805.1 L1216.3 810.3 L1205.5 814.7 L1193.8 818.2 L1181.3 820.7 L1168.2 822.4 L1154.3 823.2 L1139.8 823.0 L1124.7 821.9 L1109.0 820.0 L1092.9 817.1 L1076.3 813.3 L1059.3 808.7 L1042.0 803.2 L1024.4 796.8 L1006.6 789.7 L988.6 781.7 L970.5 773.0 L952.3 763.6 L934.1 753.4 L916.0 742.6 L898.1 731.1 L880.3 719.1 L862.7 706.5 L845.5 693.4 L828.5 679.8 L812.0 665.8 L796.0 651.4 L780.4 636.7 L765.4 621.7 L751.0 606.5 L737.3 591.2 L724.3 575.7 L712.0 560.1 L700.4 544.5 L689.7 528.9 L679.8 513.4 L670.8 498.1 L662.8 482.9 L655.6 468.0 L649.4 453.4 L644.2 439.1 L639.9 425.2 L636.7 411.7 L634.4 398.7 L633.2 386.2 L633.0 374.3 L633.8 363.0 L635.6 352.3 L638.5 342.3 L642.3 333.0 L647.1 324.4 L652.9 316.7 L659.6 309.7 L667.3 303.5 L675.8 298.2 L685.2 293.7 L695.5 290.1 L706.5 287.4 L718.3 285.6 L730.8 284.7 L744.1 284.7 L757.9 285.7 L772.4 287.5 L787.3 290.2 L802.8 293.8 L818.7 298.3 L835.0 303.7 L851.7 310.0 L868.6 317.0 L885.7 324.9 L903.0 333.6 L920.4 343.0 L937.9 353.1 L955.3 364.0 L972.7 375.5 L990.0 387.6 L1007.0 400.4 L1023.9 413.6 L1040.4 427.4 L1056.6 441.7 L1072.4 456.3 L1087.7 471.4 L1102.5 486.7 L1116.8 502.3 L1130.4 518.2 L1143.4 534.2 L1155.7 550.3 L1167.3 566.5 L1178.1 582.7 L1188.1 598.9 L1197.3 615.0 L1205.6 630.9 L1213.0 646.7 L1219.4 662.2 L1224.9 677.4 L1229.5 692.3 L1233.1 706.8 L1235.6 720.9 L1237.2 734.5 L1237.8 747.6 L1237.3 760.1 L1235.9 772.1 L1233.4 783.3 L1230.0 794.0 L1225.6 803.9 L1220.1 813.1 L1213.8 821.5 L1206.5 829.1 L1198.3 835.9 L1189.2 841.9 L1179.2 847.0 L1168.4 851.2 L1156.8 854.6 L1144.5 857.1 L1131.5 858.6 L1117.8 859.3 L1103.4 859.1 L1088.5 858.0 L1073.1 856.0 L1057.1 853.1 L1040.8 849.3 L1024.0 844.7 L1006.9 839.2 L989.6 832.9 L972.1 825.8 L954.3 818.0 L936.5 809.3 L918.7 800.0 L900.8 790.0 L883.0 779.3 L865.4 768.0 L847.9 756.1 L830.7 743.7 L813.8 730.8 L797.2 717.4 L781.0 703.7 L765.3 689.5 L750.1 675.1 L735.4 660.4 L721.4 645.5 L708.0 630.4 L695.2 615.2 L683.2 599.9 L672.0 584.7 L661.6 569.4 L651.9 554.3 L643.2 539.3 L635.3 524.4 L628.4 509.9 L622.4 495.6 L617.3 481.6 L613.3 468.0 L610.1 454.9 L608.0 442.2 L606.9 430.1 L606.8 418.5 L607.6 407.4 L609.5 397.1 L612.3 387.3 L616.1 378.3 L620.9 370.0 L626.6 362.5 L633.2 355.7 L640.7 349.8 L649.1 344.6 L658.4 340.4 L668.4 336.9 L679.2 334.3 L690.8 332.7 L703.0 331.8 L715.9 331.9 L729.5 332.9 L743.5 334.7 L758.2 337.4 L773.2 341.0 L788.8 345.5 L804.6 350.8 L820.8 356.9 L837.3 363.8 L853.9 371.5 L870.7 380.0 L887.6 389.2 L904.6 399.1 L921.5 409.7 L938.4 420.9 L955.1 432.7 L971.6 445.1 L987.9 458.0 L1003.9 471.4 L1019.6 485.2 L1034.9 499.4 L1049.7 514.0 L1064.0 528.9 L1077.8 544.0 L1090.9 559.4 L1103.5 574.9 L1115.4 590.5 L1126.5 606.2 L1136.9 621.8 L1146.5 637.5 L1155.3 653.0 L1163.3 668.4 L1170.3 683.6 L1176.5 698.6 L1181.8 713.3 L1186.1 727.7 L1189.5 741.7 L1191.9 755.2 L1193.3 768.3 L1193.8 780.9 L1193.3 792.9 L1191.9 804.4 L1189.4 815.2 L1186.0 825.4 L1181.7 834.9 L1176.4 843.7 L1170.2 851.7 L1163.1 859.0 L1155.1 865.5 L1146.3 871.2 L1136.7 876.0 L1126.3 880.1 L1115.1 883.2 L1103.2 885.6 L1090.6 887.0 L1077.4 887.6 L1063.5 887.3 L1049.2 886.2 L1034.3 884.2 L1019.0 881.4 L1003.2 877.7 L987.1 873.2 L970.7 867.9 L954.1 861.8 L937.2 854.9 L920.3 847.3 L903.2 839.0 L886.1 830.0 L869.0 820.4 L852.0 810.1 L835.1 799.2 L818.4 787.8 L801.9 775.9 L785.7 763.5 L769.9 750.7 L754.5 737.5 L739.5 724.0 L725.0 710.2 L711.0 696.1 L697.6 681.8 L684.8 667.4 L672.7 652.9 L661.3 638.3 L650.6 623.7 L640.7 609.2 L631.6 594.7 L623.4 580.4 L615.9 566.3 L609.4 552.4 L603.7 538.8 L599.0 525.6 L595.1 512.7 L592.3 500.2 L590.3 488.2 L589.3 476.6 L589.3 465.6 L590.2 455.2 L592.0 445.3 L594.8 436.2 L598.4 427.6 L603.0 419.8 L608.5 412.7 L614.9 406.3 L622.1 400.7 L630.1 395.9 L638.9 391.9 L648.5 388.7 L658.8 386.3 L669.9 384.8 L681.5 384.1 L693.8 384.2 L706.7 385.2 L720.1 387.0 L734.0 389.6 L748.3 393.1 L763.0 397.4 L778.0 402.4 L793.4 408.3 L809.0 414.9 L824.7 422.2 L840.7 430.3 L856.6 439.1 L872.7 448.5 L888.7 458.5 L904.6 469.2 L920.4 480.4 L936.0 492.1 L951.3 504.3 L966.4 517.0 L981.2 530.1 L995.5 543.5 L1009.5 557.3 L1022.9 571.4 L1035.9 585.7 L1048.2 600.1 L1060.0 614.7 L1071.1 629.5 L1081.6 644.2 L1091.3 659.0 L1100.3 673.7 L1108.5 688.3 L1115.9 702.8 L1122.5 717.1 L1128.3 731.1 L1133.1 744.9 L1137.1 758.4 L1140.2 771.5 L1142.4 784.2 L1143.7 796.5 L1144.1 808.2 L1143.6 819.5 L1142.1 830.2 L1139.8 840.3 L1136.5 849.8 L1132.4 858.7 L1127.3 866.8 L1121.5 874.3 L1114.7 881.1 L1107.2 887.1 L1098.9 892.4 L1089.8 896.9 L1080.0 900.6 L1069.5 903.5 L1058.3 905.6 L1046.5 906.9 L1034.1 907.3 L1021.1 907.0 L1007.6 905.9 L993.7 904.0 L979.4 901.3 L964.6 897.8 L949.6 893.5 L934.3 888.5 L918.7 882.7 L903.0 876.3 L887.1 869.1 L871.2 861.3 L855.3 852.9 L839.4 843.9 L823.5 834.2 L807.8 824.1 L792.3 813.4 L777.0 802.3 L762.0 790.8 L747.3 778.8 L732.9 766.5 L719.0 753.9 L705.6 741.0 L692.7 727.9 L680.3 714.7 L668.5 701.3 L657.3 687.8 L646.8 674.3 L636.9 660.7 L627.8 647.3 L619.4 633.9 L611.8 620.6 L605.0 607.6 L599.0 594.7 L593.8 582.1 L589.5 569.9 L586.0 558.0 L583.4 546.5 L581.7 535.4 L580.9 524.7 L580.9 514.6 L581.8 505.0 L583.6 496.0 L586.2 487.5 L589.7 479.7 L594.0 472.5 L599.1 466.0 L605.0 460.2 L611.8 455.1 L619.2 450.7 L627.4 447.1 L636.3 444.2 L645.9 442.1 L656.1 440.7 L666.9 440.2 L678.3 440.4 L690.1 441.3 L702.5 443.0 L715.3 445.5 L728.5 448.8 L742.1 452.8 L755.9 457.5 L770.1 462.9 L784.4 469.1 L798.9 475.9 L813.5 483.3 L828.2 491.4 L842.9 500.1 L857.6 509.4 L872.2 519.2 L886.6 529.5 L900.9 540.3 L915.0 551.6 L928.7 563.2 L942.2 575.2 L955.3 587.6 L968.1 600.2 L980.3 613.1 L992.1 626.1 L1003.4 639.4 L1014.1 652.8 L1024.2 666.2 L1033.7 679.7 L1042.5 693.2 L1050.6 706.6 L1058.1 719.9 L1064.8 733.1 L1070.7 746.2 L1075.9 759.0 L1080.2 771.5 L1083.8 783.7 L1086.6 795.6 L1088.5 807.2 L1089.6 818.3 L1089.8 829.0 L1089.3 839.2 L1087.9 848.9 L1085.7 858.0 L1082.6 866.6 L1078.8 874.6 L1074.1 882.0 L1068.7 888.7 L1062.6 894.8 L1055.7 900.2 L1048.0 904.9 L1039.7 908.9 L1030.8 912.2 L1021.2 914.7 L1011.0 916.6 L1000.2 917.7 L988.9 918.0 L977.2 917.7 L964.9 916.6 L952.3 914.8 L939.3 912.2 L925.9 909.0 L912.3 905.1 L898.4 900.5 L884.4 895.2 L870.2 889.4 L855.8 882.8 L841.5 875.7 L827.1 868.1 L812.7 859.9 L798.4 851.2 L784.3 842.0 L770.3 832.3 L756.6 822.2 L743.1 811.8 L729.9 801.0 L717.0 789.9 L704.5 778.5 L692.5 767.0 L680.9 755.2 L669.8 743.2 L659.3 731.2 L649.3 719.1 L639.9 706.9 L631.1 694.8 L623.0 682.7 L615.6 670.7 L608.8 658.8 L602.8 647.1 L597.5 635.7 L592.9 624.4 L589.1 613.5 L586.1 602.8 L583.9 592.6 L582.4 582.7 L581.7 573.2 L581.8 564.2 L582.7 555.7 L584.4 547.7 L586.8 540.2 L590.0 533.3 L593.9 526.9 L598.6 521.2 L604.0 516.1 L610.0 511.6 L616.7 507.8 L624.1 504.6 L632.1 502.1 L640.7 500.3 L649.8 499.1 L659.5 498.7 L669.6 498.9 L680.2 499.9 L691.3 501.5 L702.7 503.8 L714.5 506.7 L726.5 510.4 L738.9 514.6 L751.4 519.5 L764.1 525.0 L777.0 531.1 L790.0 537.8 L803.0 545.0 L816.0 552.8 L829.0 561.0 L841.9 569.8 L854.7 578.9 L867.3 588.5 L879.7 598.5 L891.8 608.8 L903.7 619.5 L915.3 630.4 L926.4 641.6 L937.2 653.0 L947.6 664.5 L957.4 676.2 L966.8 688.0 L975.7 699.9 L984.0 711.8 L991.7 723.6 L998.8 735.4 L1005.2 747.1 L1011.0 758.7 L1016.2 770.2 L1020.6 781.4 L1024.4 792.4 L1027.4 803.1 L1029.8 813.5 L1031.4 823.6 L1032.3 833.3 L1032.4 842.6 L1031.8 851.5 L1030.5 859.9 L1028.5 867.9 L1025.7 875.3 L1022.3 882.3 L1018.1 888.6 L1013.3 894.5 L1007.9 899.7 L1001.8 904.3 L995.0 908.4 L987.7 911.8 L979.8 914.6 L971.4 916.8 L962.4 918.3 L953.0 919.2 L943.1 919.4 L932.8 919.0 L922.1 918.0 L911.1 916.3 L899.7 914.1 L888.1 911.2 L876.2 907.7 L864.1 903.6 L851.9 899.0 L839.5 893.8 L827.1 888.1 L814.6 881.9 L802.1 875.2 L789.7 868.0 L777.4 860.4 L765.1 852.4 L753.0 844.0 L741.2 835.2 L729.5 826.2 L718.1 816.8 L707.1 807.2 L696.3 797.3 L686.0 787.3 L676.1 777.1 L666.5 766.8 L657.5 756.4 L649.0 745.9 L640.9 735.5 L633.5 725.0 L626.5 714.6 L620.2 704.3 L614.5 694.1 L609.4 684.1 L604.9 674.2 L601.1 664.6 L597.9 655.2 L595.4 646.2 L593.6 637.4 L592.4 629.0 L591.9 620.9 L592.1 613.2 L592.9 606.0 L594.5 599.2 L596.6 592.8 L599.4 587.0 L602.9 581.6 L607.0 576.8 L611.6 572.5 L616.9 568.8 L622.7 565.6 L629.1 562.9 L635.9 560.9 L643.3 559.4 L651.2 558.6 L659.5 558.3 L668.2 558.5 L677.2 559.4 L686.7 560.9 L696.4 562.9 L706.5 565.5 L716.7 568.6 L727.2 572.3 L737.9 576.6 L748.7 581.3 L759.6 586.5 L770.6 592.3 L781.6 598.5 L792.7 605.1 L803.6 612.1 L814.5 619.6 L825.3 627.4 L835.9 635.5 L846.4 644.0 L856.6 652.8 L866.6 661.8 L876.3 671.0 L885.6 680.5 L894.7 690.1 L903.3 699.8 L911.6 709.7 L919.4 719.6 L926.8 729.6 L933.6 739.6 L940.0 749.5 L945.9 759.4 L951.2 769.2 L956.0 778.9 L960.3 788.5 L963.9 797.9 L966.9 807.0 L969.4 816.0 L971.3 824.6 L972.5 833.0 L973.1 841.1 L973.2 848.8 L972.6 856.1 L971.4 863.1 L969.6 869.7 L967.2 875.8 L964.3 881.5 L960.7 886.7 L956.6 891.5 L952.0 895.8 L946.8 899.6 L941.2 902.8 L935.0 905.6 L928.4 907.8 L921.3 909.5 L913.8 910.7 L905.9 911.3 L897.7 911.5 L889.1 911.0 L880.2 910.1 L871.0 908.6 L861.6 906.7 L852.0 904.2 L842.1 901.3 L832.2 897.8 L822.1 893.9 L811.9 889.6 L801.6 884.8 L791.4 879.6 L781.1 874.0 L770.9 868.1 L760.8 861.7 L750.7 855.1 L740.8 848.2 L731.1 840.9 L721.6 833.5 L712.4 825.8 L703.4 817.8 L694.6 809.8 L686.2 801.5 L678.2 793.2 L670.5 784.7 L663.2 776.2 L656.3 767.7 L649.8 759.2 L643.8 750.7 L638.3 742.2 L633.2 733.8 L628.7 725.6 L624.6 717.5 L621.1 709.5 L618.1 701.7 L615.6 694.2 L613.7 686.9 L612.3 679.8 L611.5 673.0 L611.2 666.6 L611.4 660.4 L612.2 654.7 L613.5 649.2 L615.4 644.2 L617.8 639.6 L620.6 635.3 L624.0 631.5 L627.9 628.2 L632.2 625.2 L637.0 622.8 L642.2 620.7 L647.8 619.2 L653.8 618.1 L660.1 617.5 L666.8 617.4 L673.9 617.7 L681.2 618.5 L688.8 619.7 L696.6 621.5 L704.7 623.6 L712.9 626.2 L721.3 629.3 L729.9 632.7 L738.5 636.6 L747.2 640.8 L755.9 645.5 L764.7 650.5 L773.4 655.8 L782.1 661.5 L790.7 667.4 L799.3 673.7 L807.7 680.2 L815.9 686.9 L823.9 693.9 L831.7 701.1 L839.3 708.4 L846.7 715.9 L853.7 723.5 L860.5 731.2 L866.9 739.0 L873.0 746.8 L878.7 754.6 L884.0 762.5 L888.9 770.3 L893.4 778.0 L897.5 785.7 L901.1 793.3 L904.3 800.7 L907.1 808.0 L909.3 815.1 L911.1 822.0 L912.5 828.7 L913.3 835.2 L913.7 841.4 L913.6 847.4 L913.0 853.0 L912.0 858.3 L910.5 863.3 L908.5 868.0 L906.1 872.3 L903.3 876.3 L900.0 879.9 L896.3 883.1 L892.2 885.9 L887.7 888.3 L882.9 890.4 L877.7 892.0 L872.2 893.2 L866.3 894.0 L860.2 894.4 L853.8 894.3 L847.2 893.9 L840.3 893.1 L833.2 891.9 L825.9 890.3 L818.5 888.3 L811.0 885.9 L803.3 883.2 L795.6 880.1 L787.8 876.7 L780.0 873.0 L772.2 869.0 L764.5 864.6 L756.7 860.0 L749.1 855.2 L741.5 850.1 L734.1 844.8 L726.8 839.2 L719.6 833.5 L712.7 827.7 L706.0 821.7 L699.5 815.5 L693.2 809.3 L687.2 803.0 L681.5 796.7 L676.2 790.3 L671.1 783.9 L666.3 777.5 L662.0 771.2 L657.9 764.9 L654.3 758.6 L651.0 752.5 L648.1 746.5 L645.6 740.6 L643.5 734.9 L641.8 729.3 L640.5 723.9 L639.6 718.8 L639.1 713.8 L639.0 709.1 L639.3 704.7 L640.0 700.5 L641.1 696.6 L642.6 693.0 L644.5 689.7 L646.8 686.7 L649.4 684.0 L652.3 681.6 L655.6 679.6 L659.2 677.9 L663.1 676.5 L667.3 675.5 L671.7 674.9 L676.5 674.5 L681.4 674.6 L686.6 674.9 L692.0 675.6 L697.6 676.7 L703.3 678.0 L709.2 679.7 L715.2 681.7 L721.3 684.0 L727.5 686.6 L733.7 689.5 L740.0 692.7 L746.3 696.1 L752.6 699.8 L758.8 703.7 L765.0 707.8 L771.1 712.2 L777.2 716.7 L783.1 721.4 L788.9 726.3 L794.6 731.3 L800.1 736.4 L805.4 741.7 L810.5 747.0 L815.4 752.4 L820.1 757.9 L824.5 763.4 L828.7 768.9 L832.6 774.4 L836.2 779.9 L839.5 785.4 L842.5 790.8 L845.3 796.1 L847.7 801.4 L849.8 806.5 L851.5 811.5 L853.0 816.4 L854.1 821.2 L854.9 825.7 L855.3 830.1 L855.4 834.3 L855.2 838.4 L854.6 842.2 L853.8 845.7 L852.6 849.1 L851.1 852.2 L849.3 855.0 L847.2 857.6 L844.8 859.9 L842.2 862.0 L839.3 863.8 L836.1 865.3 L832.7 866.5 L829.1 867.5 L825.2 868.1 L821.2 868.5 L816.9 868.7 L812.5 868.5 L808.0 868.1 L803.3 867.4 L798.5 866.4 L793.6 865.2 L788.6 863.8 L783.5 862.1 L778.4 860.1 L773.2 858.0 L768.1 855.6 L762.9 853.0 L757.7 850.2 L752.6 847.3 L747.6 844.1 L742.6 840.9 L737.6 837.4 L732.8 833.9 L728.1 830.2 L723.5 826.4 L719.1 822.5 L714.8 818.6 L710.7 814.6 L706.8 810.5 L703.0 806.4 L699.5 802.3 L696.1 798.2 L693.0 794.1 L690.1 790.0 L687.4 785.9 L685.0 782.0 L682.9 778.0 L680.9 774.2 L679.3 770.4 L677.8 766.8 L676.7 763.2 L675.8 759.8 L675.1 756.5 L674.8 753.4 L674.6 750.4 L674.8 747.5 L675.1 744.9 L675.7 742.4 L676.6 740.1 L677.7 738.0 L679.0 736.1 L680.6 734.4 L682.3 732.9 L684.3 731.6 L686.5 730.5 L688.8 729.7 L691.3 729.0 L694.0 728.5 L696.8 728.3 L699.8 728.3 L702.9 728.5 L706.1 728.8 L709.4 729.4 L712.9 730.2 L716.3 731.2 L719.9 732.3 L723.5 733.7 L727.2 735.2 L730.8 736.9 L734.5 738.7 L738.2 740.7 L741.9 742.8 L745.5 745.1 L749.1 747.5 L752.7 750.0 L756.2 752.6 L759.6 755.3 L762.9 758.1 L766.2 761.0 L769.3 763.9 L772.3 766.9 L775.2 769.9 L778.0 773.0 L780.6 776.1 L783.1 779.2 L785.4 782.3 L787.6 785.3 L789.6 788.4 L791.4 791.4 L793.1 794.4 L794.6 797.3 L795.9 800.2 L797.0 803.0 L797.9 805.7 L798.7 808.4 L799.2 810.9 L799.6 813.4 L799.8 815.7 L799.8 817.9 L799.7 820.0 L799.3 822.0 L798.8 823.9 L798.2 825.6 L797.3 827.2 L796.4 828.6 L795.2 829.9 L793.9 831.1 L792.5 832.1 L791.0 832.9 L789.3 833.6 L787.5 834.2 L785.6 834.6 L783.6 834.9 L781.6 835.0 L779.4 835.0 L777.2 834.9 L774.9 834.6 L772.6 834.2 L770.2 833.6 L767.7 833.0 L765.3 832.2 L762.8 831.3 L760.4 830.3 L757.9 829.2 L755.5 828.0 L753.0 826.7 L750.6 825.3 L748.2 823.8 L745.9 822.3 L743.6 820.7 L741.4 819.1 L739.3 817.4 L737.2 815.7 L735.2 814.0 L733.3 812.2 L731.4 810.4 L729.7 808.6 L728.1 806.8 L726.5 805.0 L725.1 803.2 L723.8 801.5 L722.6 799.7 L721.5 798.0 L720.5 796.3 L719.6 794.7 L718.9 793.1 L718.3 791.6 L717.7 790.1 L717.3 788.7 L717.0 787.3 L716.9 786.0 L716.8 784.8 L716.8 783.7 L717.0 782.7 L717.2 781.7 L717.5 780.8 L717.9 780.0 L718.5 779.3 L719.1 778.7 L719.7 778.2 L720.5 777.7 L721.3 777.3 L722.2 777.1 L723.1 776.9 L724.1 776.8 L725.1 776.7 L726.2 776.8 L727.3 776.9 L728.4 777.1 L729.5 777.4 L730.7 777.7 L731.9 778.1 L733.0 778.6 L734.2 779.1 L735.4 779.6 L736.5 780.2 L737.6 780.9 L738.7 781.6 L739.8 782.3 L740.9 783.0 L741.9 783.8 L742.8 784.6 L743.8 785.4 L744.6 786.2 L745.5 787.1 L746.2 787.9 L747.0 788.7 L747.6 789.5 L748.2 790.3 L748.8 791.1 L749.2 791.8 L749.6 792.6 L750.0 793.3 L750.3 793.9 L750.5 794.6 L750.7 795.2 L750.8 795.7 L750.9 796.3 L750.8 796.7 L750.8 797.2 L750.7 797.6 L750.5 797.9 L750.3 798.2 L750.1 798.4 L749.8 798.6 L749.5 798.7 L749.1 798.8 L748.7 798.9 L748.3 798.9 L747.9 798.8 L747.5 798.7 L747.0 798.6 L746.6 798.4 L746.1 798.2 L745.6 798.0 L745.2 797.7 L744.8 797.4 L744.3 797.0"/>
  </g>
</svg>
