<svg width="140" height="140" viewBox="0 0 140 140" fill="none" xmlns="http://www.w3.org/2000/svg">
<path fill-rule="evenodd" clip-rule="evenodd" d="M34.9666 23.9756C48.6639 26.9668 60.0383 34.6924 68.4256 46.7016L70.2256 49.2789L71.4094 47.5335C73.0272 45.1479 77.2853 40.191 79.638 37.9542C88.3569 29.6653 98.7885 24.5902 109.676 23.3403C113.093 22.948 129.022 22.8678 129 23.2428C128.992 23.3803 127.392 24.6039 125.446 25.9619C123.5 27.3202 118.535 30.8073 114.412 33.7107L106.917 38.99L106.774 58.6945C106.64 77.0626 106.584 78.6133 105.947 81.5603C104.916 86.3249 104.012 89.0083 102.077 93.0408C98.7789 99.9154 95.5743 104.175 87.9606 111.808L82.8998 116.88L82.8152 88.9045C82.7689 73.518 82.6439 60.9287 82.5378 60.9287C82.4314 60.9287 82.0975 61.2146 81.7957 61.5643C81.4939 61.9137 78.7237 64.9981 75.6394 68.419L71.3955 72.8312C71.0348 73.2063 70.5369 73.4182 70.0166 73.4182C69.4768 73.4182 68.9621 73.192 68.5946 72.7966C67.4228 71.5356 64.9661 68.9007 62.7348 66.3146L57.7762 60.568L57.6109 88.784L57.4456 117L51.9733 111.509C42.9348 102.441 38.7219 96.1798 35.9636 87.7165C33.9868 81.6508 34.044 82.4182 33.9031 60.0316L33.7732 39.3348L22.3866 31.3141C16.1239 26.9023 11 23.2086 11 23.1054C11 23.0023 15.6489 22.9936 21.3304 23.0858C30.283 23.2315 32.1018 23.35 34.9666 23.9756Z" fill="#14C19A"/>
</svg>
